<svg width="420" height="260" viewBox="0 0 420 260" fill="none" xmlns="http://www.w3.org/2000/svg">
  <rect width="420" height="260" rx="28" fill="#0F172A" />
  <rect x="28" y="36" width="364" height="184" rx="18" fill="#1E293B" />
  <rect x="52" y="60" width="120" height="12" rx="6" fill="#38BDF8" opacity="0.6" />
  <rect x="52" y="84" width="74" height="10" rx="5" fill="#38BDF8" opacity="0.4" />
  <polyline points="60,188 110,144 160,164 210,120 260,156 310,96 360,136" stroke="#38BDF8" stroke-width="6" stroke-linecap="round" stroke-linejoin="round" fill="none" />
  <circle cx="110" cy="144" r="7" fill="#38BDF8" />
  <circle cx="210" cy="120" r="7" fill="#38BDF8" />
  <circle cx="310" cy="96" r="7" fill="#38BDF8" />
  <rect x="268" y="60" width="96" height="64" rx="16" fill="#0F172A" />
  <path d="M288 98C288 89.7167 294.717 83 303 83C311.283 83 318 89.7167 318 98C318 106.283 311.283 113 303 113C294.717 113 288 106.283 288 98Z" stroke="#38BDF8" stroke-width="6" />
  <path d="M288 98H303V83" stroke="#38BDF8" stroke-width="6" stroke-linecap="round" />
</svg>
