<svg width="420" height="260" viewBox="0 0 420 260" fill="none" xmlns="http://www.w3.org/2000/svg">
  <rect width="420" height="260" rx="28" fill="#0F172A" />
  <rect x="28" y="36" width="364" height="184" rx="18" fill="#1E293B" />
  <rect x="52" y="60" width="110" height="12" rx="6" fill="#F97316" opacity="0.7" />
  <rect x="52" y="84" width="82" height="10" rx="5" fill="#F97316" opacity="0.5" />
  <rect x="52" y="124" width="140" height="96" rx="16" fill="#0F172A" />
  <rect x="68" y="140" width="48" height="12" rx="6" fill="#38BDF8" opacity="0.7" />
  <rect x="68" y="162" width="92" height="8" rx="4" fill="#38BDF8" opacity="0.5" />
  <rect x="68" y="182" width="68" height="8" rx="4" fill="#38BDF8" opacity="0.4" />
  <circle cx="150" cy="199" r="18" fill="#38BDF8" />
  <path d="M150 190V208" stroke="#0F172A" stroke-width="4" stroke-linecap="round" />
  <path d="M141 199H159" stroke="#0F172A" stroke-width="4" stroke-linecap="round" />
  <rect x="224" y="124" width="140" height="96" rx="16" fill="#0F172A" />
  <rect x="244" y="144" width="64" height="12" rx="6" fill="#F97316" opacity="0.8" />
  <rect x="244" y="166" width="92" height="8" rx="4" fill="#38BDF8" opacity="0.6" />
  <rect x="244" y="186" width="52" height="8" rx="4" fill="#38BDF8" opacity="0.5" />
  <rect x="312" y="182" width="36" height="24" rx="12" fill="#38BDF8" />
  <path d="M330 194L336 188" stroke="#0F172A" stroke-width="4" stroke-linecap="round" />
  <path d="M330 194L324 188" stroke="#0F172A" stroke-width="4" stroke-linecap="round" />
</svg>
